<svg width="402.000000" height="31.795990" viewBox="0 0 402 31.796" fill="none" xmlns="http://www.w3.org/2000/svg" xmlns:xlink="http://www.w3.org/1999/xlink">
	<desc>
			Created with Pixso.
	</desc>
	<defs/>
	<path id="Personal Journal" d="M102.67 26.33Q102.67 25.19 103.22 23.13C103.58 21.75 104.09 20.13 104.75 18.3Q106.36 13.9 107.77 10.99C108.72 9.03 109.65 7.51 110.55 6.41C110.76 6.45 111.01 6.54 111.3 6.67C111.62 6.81 111.92 6.97 112.21 7.14C112.51 7.3 112.77 7.46 112.99 7.64C113.24 7.81 113.39 7.95 113.46 8.05C112.11 9.65 110.92 11.36 109.9 13.2C108.88 15.04 107.94 17.14 107.09 19.52C106.36 21.56 105.81 23.41 105.43 25.06Q104.86 27.5 104.86 29.14L104.86 29.69C104.86 29.75 104.86 29.82 104.88 29.89C104.64 29.86 104.43 29.8 104.26 29.71C104.08 29.62 103.97 29.52 103.92 29.4C103.89 29.31 103.79 29.18 103.63 29.01C103.48 28.85 103.34 28.73 103.22 28.65C103.06 28.54 102.93 28.27 102.83 27.84C102.72 27.39 102.67 26.89 102.67 26.33ZM189 26.33C189 25.57 189.18 24.5 189.55 23.13C189.91 21.75 190.42 20.13 191.08 18.3C192.15 15.37 193.16 12.93 194.1 10.99C195.05 9.03 195.98 7.51 196.88 6.41C197.09 6.45 197.34 6.54 197.63 6.67Q197.82 6.76 198 6.85L198 6.85L198.01 6.85Q198.28 6.99 198.54 7.14C198.84 7.3 199.1 7.46 199.32 7.64C199.56 7.81 199.72 7.95 199.79 8.05C198.44 9.65 197.25 11.36 196.23 13.2C195.21 15.04 194.27 17.14 193.42 19.52C192.69 21.56 192.14 23.41 191.76 25.06C191.37 26.69 191.18 28.05 191.18 29.14L191.18 29.69C191.18 29.75 191.19 29.82 191.21 29.89C190.97 29.86 190.76 29.8 190.59 29.71C190.41 29.62 190.3 29.52 190.25 29.4C190.21 29.31 190.12 29.18 189.96 29.01C189.81 28.85 189.67 28.73 189.55 28.65C189.39 28.54 189.26 28.27 189.16 27.84C189.05 27.39 189 26.89 189 26.33ZM124.89 8.78C125.55 8.78 126.24 8.9 126.95 9.14Q128.01 9.51 128.82 10.08C128.64 10.97 128.48 11.76 128.32 12.47C128.19 13.18 128.06 13.83 127.93 14.42C127.81 15 127.69 15.52 127.57 16.01C127.47 16.48 127.36 16.92 127.26 17.34Q126.63 19.68 125.96 21.57C125.52 22.82 125.06 23.95 124.55 24.95C124.07 25.96 123.55 26.85 122.99 27.63C122.46 28.41 121.88 29.1 121.25 29.69C120.65 30.26 120.04 30.73 119.43 31.09C118.83 31.45 118.26 31.69 117.74 31.79C117.05 31.79 116.41 31.71 115.82 31.56C115.23 31.4 114.72 31.18 114.28 30.91C113.87 30.65 113.54 30.33 113.3 29.95C113.07 29.58 112.96 29.17 112.96 28.72C112.96 28.24 113.08 27.63 113.32 26.9C113.56 26.16 113.94 25.28 114.44 24.28C114.65 24.29 114.89 24.35 115.17 24.43C115.45 24.52 115.72 24.62 116 24.75C116.28 24.87 116.53 25.01 116.75 25.16C116.98 25.3 117.14 25.44 117.25 25.58C116.69 26.15 116.24 26.78 115.9 27.48C115.55 28.15 115.38 28.74 115.38 29.24C115.38 29.54 115.43 29.8 115.53 30.02C115.65 30.27 115.85 30.48 116.13 30.67Q117.72 30.08 119.22 28.44C120.23 27.36 121.12 26.02 121.9 24.41Q122.6 22.98 123.18 21.13C123.56 19.9 123.88 18.67 124.14 17.44Q124.55 15.57 124.76 13.88C124.92 12.73 125 11.77 125 10.99Q125 10.81 124.97 10.5Q124.97 10.16 124.94 9.82Q124.94 9.46 124.92 9.17C124.9 8.98 124.89 8.85 124.89 8.78ZM36.95 13.98C36.95 14.93 36.7 15.84 36.22 16.71C35.75 17.58 35.11 18.34 34.3 19Q33.1 19.96 31.46 20.53C30.39 20.91 29.24 21.11 28.03 21.11Q27.38 21.11 26.99 20.95C26.75 20.83 26.47 20.6 26.16 20.27Q24.86 23.11 24.03 25.5Q23.22 27.87 22.75 30.1C22.09 29.95 21.56 29.67 21.14 29.27Q20.52 28.7 20 27.81C20.17 27.48 20.38 27.05 20.62 26.51C20.86 25.98 21.16 25.32 21.5 24.54Q22.02 23.34 22.7 21.7Q23.4 20.04 24.34 17.83C24.61 17.15 24.86 16.56 25.07 16.06C25.27 15.56 25.46 15.09 25.61 14.66C25.77 14.21 25.91 13.76 26.03 13.33C26.17 12.9 26.3 12.42 26.44 11.9Q25.22 12.29 24.18 12.81Q23.17 13.33 22.49 13.9C22.34 13.8 22.17 13.64 22 13.44Q21.76 13.12 21.56 12.76C21.42 12.5 21.3 12.24 21.19 11.98C21.09 11.72 21.03 11.49 21.01 11.28Q21.76 10.76 22.88 10.32C23.63 10.02 24.42 9.77 25.27 9.56Q26.55 9.22 27.9 9.04Q29.28 8.86 30.53 8.86Q32.01 8.86 33.2 9.25Q34.4 9.61 35.23 10.29Q35.79 10.75 36.18 11.32L36.18 11.32Q36.36 11.6 36.5 11.9Q36.51 11.9 36.51 11.91Q36.95 12.84 36.95 13.98ZM32.32 10.86C31.66 10.86 30.98 10.91 30.29 11.02L30.6 11.49C30.43 11.71 30.21 12.05 29.95 12.5C29.69 12.95 29.41 13.5 29.1 14.14Q28.63 15.07 28.06 16.24C27.69 17.02 27.3 17.85 26.89 18.71C28.24 18.71 29.47 18.59 30.58 18.35C31.69 18.09 32.63 17.74 33.41 17.31C34.21 16.86 34.82 16.34 35.26 15.75Q35.74 15.11 35.88 14.41Q35.93 14.13 35.93 13.85C35.93 12.95 35.63 12.23 35.02 11.69C34.42 11.14 33.52 10.86 32.32 10.86ZM64.95 17.65C64.93 17.98 64.87 18.32 64.77 18.69C64.68 19.03 64.57 19.35 64.43 19.65C64.29 19.93 64.14 20.16 63.99 20.35C63.83 20.54 63.68 20.64 63.54 20.64C63.35 20.62 63.24 20.49 63.21 20.25C63.21 20.2 63.22 20.12 63.26 20.01C63.31 19.89 63.36 19.76 63.41 19.62C63.47 19.48 63.51 19.35 63.54 19.21C63.6 19.07 63.62 18.95 63.62 18.84C63.62 18.6 63.56 18.4 63.44 18.25C63.34 18.07 63.19 17.99 63 17.99C62.31 17.99 61.78 18.42 61.41 19.29C61.05 20.15 60.87 21.43 60.87 23.11Q60.87 23.37 60.89 23.42C61.26 23.4 61.58 23.39 61.85 23.39C62.15 23.38 62.44 23.37 62.71 23.37C62.73 23.4 62.74 23.47 62.74 23.58C62.74 23.73 62.7 23.84 62.63 23.91C62.24 24 61.92 24.08 61.67 24.15C61.45 24.2 61.27 24.25 61.15 24.3C61.03 24.36 60.95 24.42 60.92 24.49C60.9 24.54 60.89 24.62 60.89 24.72L60.89 25.14C60.91 25.27 60.92 25.45 60.92 25.66C60.92 27.11 60.52 28.28 59.72 29.17Q59.51 29.41 59.27 29.61L59.27 29.61Q58.17 30.53 56.45 30.7C56.2 30.68 55.95 30.61 55.69 30.49C55.43 30.37 55.18 30.21 54.94 30.02C54.71 29.83 54.51 29.62 54.34 29.37C54.17 29.15 54.05 28.91 53.98 28.67C53.98 28.01 54.12 27.39 54.39 26.8C54.67 26.19 55.04 25.66 55.51 25.21C56 24.75 56.56 24.37 57.2 24.1C57.86 23.8 58.57 23.63 59.33 23.58C59.33 23.14 59.29 22.72 59.2 22.3C59.12 21.89 59.02 21.49 58.92 21.11C58.83 20.71 58.74 20.33 58.66 19.96C58.57 19.58 58.53 19.21 58.53 18.84Q58.53 18.69 58.54 18.53Q58.59 17.99 58.81 17.46C59 17 59.25 16.57 59.57 16.19C59.88 15.79 60.24 15.45 60.66 15.18C61.07 14.9 61.51 14.71 61.96 14.61C62.15 14.66 62.4 14.81 62.71 15.07C63.04 15.32 63.36 15.59 63.67 15.91C63.99 16.22 64.26 16.54 64.51 16.87C64.75 17.18 64.9 17.44 64.95 17.65ZM80.66 15.39Q81.33 15.59 81.93 16.32C82.33 16.79 82.62 17.31 82.81 17.88C82.62 18.35 82.33 18.91 81.93 19.57Q81.33 20.56 80.73 21.6C80.33 22.28 79.97 22.93 79.64 23.55C79.33 24.16 79.15 24.66 79.1 25.06C79.37 24.76 79.68 24.42 80.01 24.04C80.35 23.64 80.68 23.25 80.99 22.87C81.32 22.47 81.63 22.12 81.9 21.81C82.18 21.48 82.4 21.24 82.55 21.08C82.88 20.73 83.27 20.33 83.72 19.88C84.17 19.42 84.64 18.98 85.13 18.58C85.63 18.17 86.13 17.82 86.64 17.54C87.14 17.25 87.6 17.1 88.01 17.1C88.46 17.1 88.84 17.26 89.13 17.57C89.44 17.86 89.69 18.18 89.86 18.51C89.86 18.54 89.79 18.59 89.65 18.66C89.53 18.71 89.35 18.88 89.11 19.16C88.86 19.47 88.59 19.9 88.27 20.45C87.98 20.99 87.68 21.58 87.39 22.22C87.11 22.85 86.88 23.49 86.69 24.15C86.5 24.81 86.4 25.4 86.4 25.94C86.4 26.37 86.45 26.65 86.56 26.77C86.68 26.89 86.84 26.96 87.05 26.96C87.24 26.96 87.44 26.91 87.65 26.83C87.86 26.74 88.02 26.7 88.14 26.7C88.21 26.73 88.27 26.81 88.3 26.93Q88.38 27.09 88.38 27.22C88.24 27.34 88.07 27.46 87.88 27.58Q87.6 27.76 87.29 27.92C87.08 28.02 86.87 28.11 86.66 28.18Q86.38 28.28 86.14 28.28C85.64 28.28 85.22 28.2 84.89 28.05C84.58 27.91 84.33 27.72 84.14 27.48C83.97 27.23 83.85 26.95 83.78 26.62C83.71 26.27 83.67 25.91 83.67 25.53C83.67 25.32 83.69 25.08 83.72 24.82C83.76 24.56 83.83 24.26 83.93 23.91C84.04 23.55 84.18 23.12 84.37 22.64C84.56 22.14 84.81 21.54 85.1 20.85C85.07 20.85 84.83 20.97 84.4 21.21C83.97 21.45 83.5 21.82 83 22.33C82.18 23.11 81.44 23.88 80.79 24.64C80.14 25.4 79.49 26.25 78.81 27.19C78.43 27.73 78.09 28.18 77.8 28.54C77.52 28.92 77.28 29.17 77.07 29.3C76.7 29.09 76.43 28.79 76.26 28.41C76.09 28.05 75.96 27.67 75.87 27.27C75.87 26.94 75.92 26.52 76 26.02C76.11 25.52 76.24 24.96 76.39 24.36Q76.65 23.42 77.02 22.41C77.26 21.73 77.53 21.05 77.82 20.38C78.48 18.85 79.08 17.66 79.62 16.79C80.17 15.92 80.52 15.45 80.66 15.39ZM166.98 15.39Q167.66 15.59 168.26 16.32C168.66 16.79 168.95 17.31 169.14 17.88C168.95 18.35 168.66 18.91 168.26 19.57Q167.66 20.56 167.06 21.6C166.66 22.28 166.3 22.93 165.97 23.55C165.66 24.16 165.48 24.66 165.42 25.06C165.7 24.76 166 24.42 166.33 24.04C166.68 23.64 167.01 23.25 167.32 22.87C167.65 22.47 167.95 22.12 168.23 21.81C168.51 21.48 168.73 21.24 168.88 21.08C169.21 20.73 169.6 20.33 170.05 19.88C170.5 19.42 170.97 18.98 171.46 18.58Q172.21 17.96 172.96 17.54C173.47 17.25 173.93 17.1 174.34 17.1C174.79 17.1 175.17 17.26 175.46 17.57C175.77 17.86 176.01 18.18 176.19 18.51C176.19 18.54 176.12 18.59 175.98 18.66C175.86 18.71 175.68 18.88 175.43 19.16C175.19 19.47 174.91 19.9 174.6 20.45C174.31 20.99 174.01 21.58 173.72 22.22C173.44 22.85 173.21 23.49 173.02 24.15Q172.73 25.14 172.73 25.94C172.73 26.37 172.78 26.65 172.89 26.77C173.01 26.89 173.17 26.96 173.38 26.96C173.57 26.96 173.77 26.91 173.98 26.83C174.19 26.74 174.35 26.7 174.47 26.7C174.54 26.73 174.59 26.81 174.63 26.93Q174.71 27.09 174.71 27.22C174.57 27.34 174.4 27.46 174.21 27.58C174.02 27.7 173.82 27.81 173.61 27.92C173.41 28.02 173.2 28.11 172.99 28.18C172.8 28.25 172.63 28.28 172.47 28.28C171.97 28.28 171.55 28.2 171.22 28.05C170.91 27.91 170.66 27.72 170.47 27.48C170.29 27.23 170.17 26.95 170.1 26.62C170.03 26.27 170 25.91 170 25.53C170 25.32 170.02 25.08 170.05 24.82C170.09 24.56 170.16 24.26 170.26 23.91C170.36 23.55 170.51 23.12 170.7 22.64C170.89 22.14 171.14 21.54 171.43 20.85C171.4 20.85 171.16 20.97 170.73 21.21C170.29 21.45 169.83 21.82 169.32 22.33C168.51 23.11 167.77 23.88 167.11 24.64C166.47 25.4 165.81 26.25 165.14 27.19C164.76 27.73 164.42 28.18 164.12 28.54C163.85 28.92 163.6 29.17 163.4 29.3C163.03 29.09 162.76 28.79 162.59 28.41C162.42 28.05 162.29 27.67 162.2 27.27Q162.2 26.77 162.33 26.02C162.43 25.52 162.56 24.96 162.72 24.36C162.89 23.73 163.1 23.08 163.34 22.41C163.59 21.73 163.86 21.05 164.15 20.38C164.81 18.85 165.41 17.66 165.94 16.79C166.5 15.92 166.85 15.45 166.98 15.39ZM45.27 27.48C45.36 26.97 45.51 26.31 45.72 25.5C45.94 24.67 46.2 23.79 46.5 22.87C46.79 21.94 47.1 21 47.43 20.07C47.76 19.13 48.08 18.29 48.39 17.54C48.62 17.01 48.82 16.59 48.99 16.29C49.17 15.98 49.36 15.72 49.56 15.52C49.81 15.55 50.06 15.61 50.32 15.7C50.58 15.78 50.83 15.89 51.07 16.01C51.32 16.13 51.53 16.26 51.72 16.4C51.91 16.52 52.06 16.64 52.16 16.76Q51.46 17.6 50.92 18.66C50.57 19.37 50.21 20.28 49.85 21.39C50.79 20.56 51.61 19.76 52.32 19C53.05 18.24 53.72 17.39 54.35 16.45C54.45 16.36 54.63 16.32 54.89 16.32C55.14 16.32 55.37 16.36 55.6 16.45C55.82 16.52 55.98 16.62 56.06 16.76C55.75 17.6 55.6 18.42 55.6 19.23C55.6 20 55.71 20.57 55.93 20.95C55.92 21.05 55.8 21.25 55.57 21.55C55.36 21.84 55.13 22.12 54.87 22.38C54.4 22.14 53.98 21.81 53.62 21.39C53.26 20.96 52.99 20.49 52.81 19.99C52 20.56 51.31 21.12 50.73 21.68C50.16 22.21 49.67 22.82 49.25 23.5C48.85 24.16 48.51 24.92 48.21 25.79C47.94 26.65 47.67 27.68 47.41 28.88C47.25 28.86 47.06 28.8 46.83 28.7C46.63 28.61 46.41 28.5 46.18 28.36C45.98 28.22 45.79 28.07 45.61 27.92C45.44 27.76 45.33 27.61 45.27 27.48ZM151.66 27.48C151.75 26.97 151.89 26.31 152.1 25.5C152.33 24.67 152.59 23.79 152.88 22.87C153.18 21.94 153.49 21 153.82 20.07C154.15 19.13 154.47 18.29 154.78 17.54C155.01 17.01 155.21 16.59 155.38 16.29C155.55 15.98 155.74 15.72 155.95 15.52C156.19 15.55 156.45 15.61 156.71 15.7C156.97 15.78 157.22 15.89 157.46 16.01C157.7 16.13 157.92 16.26 158.11 16.4C158.3 16.52 158.45 16.64 158.55 16.76Q157.85 17.6 157.3 18.66Q156.78 19.73 156.24 21.39Q157.64 20.14 158.71 19C159.44 18.24 160.11 17.39 160.74 16.45C160.84 16.36 161.02 16.32 161.28 16.32C161.52 16.32 161.76 16.36 161.98 16.45C162.21 16.52 162.37 16.62 162.45 16.76C162.14 17.6 161.98 18.42 161.98 19.23C161.98 20 162.1 20.57 162.32 20.95C162.3 21.05 162.18 21.25 161.96 21.55C161.75 21.84 161.52 22.12 161.25 22.38C160.79 22.14 160.37 21.81 160.01 21.39C159.64 20.96 159.38 20.49 159.2 19.99C158.39 20.56 157.69 21.12 157.12 21.68C156.55 22.21 156.06 22.82 155.64 23.5C155.24 24.16 154.89 24.92 154.6 25.79C154.32 26.65 154.05 27.68 153.79 28.88C153.64 28.86 153.45 28.8 153.22 28.7C153.01 28.61 152.8 28.5 152.57 28.36C152.36 28.22 152.17 28.07 152 27.92C151.83 27.76 151.71 27.61 151.66 27.48ZM146.51 27.42C146.18 27.15 145.96 26.8 145.83 26.38C145.73 25.97 145.68 25.61 145.68 25.32Q145.68 24.77 145.81 24.38C145.74 24.38 145.58 24.52 145.34 24.8C145.1 25.07 144.83 25.4 144.53 25.79C144.26 26.17 143.98 26.54 143.7 26.9C143.42 27.27 143.22 27.54 143.08 27.71Q142.74 28.07 142.43 28.28C142.24 28.42 142.08 28.5 141.96 28.52C141.68 28.5 141.39 28.44 141.08 28.33C140.78 28.25 140.5 28.12 140.22 27.94Q140.14 27.89 140.07 27.83Q139.77 27.61 139.52 27.32C139.33 27.08 139.2 26.8 139.13 26.49C139.13 26 139.13 25.6 139.15 25.29C139.19 24.98 139.25 24.64 139.33 24.28Q139.57 23.29 140.01 22.04C140.32 21.21 140.68 20.39 141.08 19.6C141.47 18.78 141.92 18.03 142.4 17.34C142.9 16.62 143.43 16.07 143.99 15.67C144.14 15.67 144.33 15.69 144.53 15.72C144.74 15.74 144.95 15.78 145.16 15.85C145.38 15.92 145.59 16.01 145.78 16.11C145.99 16.2 146.16 16.32 146.3 16.48Q146.07 16.74 145.11 18.22C144.48 19.21 143.78 20.63 143 22.48C142.91 22.67 142.81 22.95 142.69 23.32C142.57 23.68 142.45 24.06 142.32 24.46C142.2 24.86 142.1 25.25 142.01 25.63Q141.91 26.2 141.91 26.54Q141.91 26.75 141.96 26.85C142.01 26.92 142.06 26.97 142.09 27.01C142.35 26.9 142.68 26.62 143.08 26.15C143.48 25.68 144.03 24.96 144.74 23.99C144.92 23.75 145.11 23.47 145.34 23.16C145.58 22.85 145.83 22.52 146.07 22.17C146.31 21.81 146.54 21.43 146.74 21.05C146.97 20.67 147.15 20.29 147.29 19.91C147.36 19.7 147.45 19.46 147.55 19.18C147.67 18.89 147.81 18.58 147.97 18.27C148.14 17.96 148.33 17.65 148.54 17.34C148.76 17.01 149.02 16.7 149.32 16.43C149.54 16.43 149.79 16.45 150.05 16.5C150.31 16.56 150.55 16.62 150.77 16.71C151.02 16.78 151.22 16.87 151.4 16.97C151.57 17.06 151.7 17.15 151.79 17.26Q151.32 18.4 150.75 19.52Q150.18 20.64 149.68 21.73C149.35 22.44 149.08 23.15 148.85 23.86C148.62 24.57 148.51 25.27 148.51 25.94C148.51 26.31 148.54 26.63 148.59 26.9C148.66 27.16 148.73 27.39 148.8 27.58C148.87 27.75 148.93 27.9 148.98 28.02Q149.08 28.2 149.08 28.33C149.08 28.35 149.07 28.38 149.03 28.41C149.01 28.43 149 28.44 148.98 28.44C148.86 28.44 148.7 28.41 148.51 28.36C148.32 28.31 148.1 28.23 147.86 28.13C147.64 28.04 147.4 27.93 147.16 27.81C146.93 27.69 146.72 27.56 146.51 27.42ZM68.04 28.91C67.05 28.8 66.26 28.37 65.67 27.61C65.08 26.84 64.79 25.87 64.79 24.69C64.79 24 64.89 23.28 65.1 22.54C65.31 21.79 65.6 21.07 65.98 20.38C66.36 19.67 66.81 19 67.33 18.37C67.85 17.75 68.42 17.21 69.02 16.76C69.98 16.05 70.87 15.7 71.7 15.7C72.26 15.99 72.8 16.61 73.34 17.54L73.57 17.54Q73.68 17.52 73.81 17.52C74.73 17.52 75.19 18.33 75.19 19.96C75.19 21.05 75 22.09 74.64 23.08C74.29 24.05 73.8 24.94 73.16 25.73C72.53 26.53 71.78 27.21 70.9 27.76C70.03 28.3 69.08 28.68 68.04 28.91ZM131.03 28.91Q130.22 28.82 129.58 28.44Q129.06 28.12 128.66 27.61C128.07 26.84 127.78 25.87 127.78 24.69C127.78 24 127.88 23.28 128.09 22.54C128.3 21.79 128.59 21.07 128.98 20.38C129.36 19.67 129.81 19 130.33 18.37C130.85 17.75 131.41 17.21 132.02 16.76C132.97 16.05 133.86 15.7 134.7 15.7C135.25 15.99 135.8 16.61 136.33 17.54L136.57 17.54C136.64 17.53 136.72 17.52 136.8 17.52C137.72 17.52 138.18 18.33 138.18 19.96Q138.18 21.26 137.84 22.46L137.84 22.46Q137.75 22.77 137.63 23.08C137.29 24.05 136.79 24.94 136.15 25.73C135.53 26.53 134.77 27.21 133.89 27.76C133.02 28.3 132.07 28.68 131.03 28.91ZM44.7 17.23C44.63 18.31 44.44 19.23 44.12 20.01C43.81 20.78 43.36 21.45 42.77 22.04C42.2 22.61 41.5 23.13 40.66 23.6C39.83 24.07 38.86 24.52 37.75 24.95C37.75 25.06 37.74 25.17 37.73 25.29L37.73 25.63C37.73 25.85 37.74 26.09 37.78 26.33C37.81 26.57 37.87 26.8 37.96 27.01C38.05 27.22 38.17 27.39 38.33 27.53C38.48 27.65 38.68 27.71 38.92 27.71Q39.05 27.71 39.18 27.7L39.18 27.7Q39.75 27.65 40.3 27.4C40.75 27.19 41.18 26.94 41.58 26.64C41.99 26.33 42.37 26 42.72 25.66C43.08 25.29 43.4 24.96 43.68 24.67C43.85 24.82 44 24.97 44.12 25.11C43.34 26.15 42.49 27.02 41.55 27.71C40.63 28.39 39.75 28.82 38.92 29.01C37.73 28.87 36.79 28.44 36.12 27.71C35.46 26.96 35.13 26.07 35.13 25.03Q35.13 23.97 35.41 22.87Q35.71 21.81 36.19 20.84Q36.22 20.79 36.25 20.74C36.61 20.05 37.03 19.4 37.49 18.79Q38.22 17.88 39.03 17.2Q39.86 16.53 40.72 16.14C41.31 15.88 41.89 15.75 42.46 15.75C43.26 15.85 44 16.35 44.7 17.23ZM99.45 17.49C99.63 17.49 99.83 17.53 100.05 17.6C100.3 17.65 100.51 17.73 100.7 17.83C100.89 17.92 101.05 18.01 101.17 18.12C101.31 18.22 101.38 18.31 101.38 18.4C101.03 19.13 100.71 19.87 100.42 20.61C100.12 21.34 99.87 22.04 99.66 22.72C99.45 23.39 99.29 24.03 99.17 24.62C99.06 25.2 99.01 25.72 99.01 26.15C99.01 26.63 99.06 27.04 99.17 27.37C99.27 27.68 99.45 27.91 99.69 28.05C99.48 28.19 99.21 28.3 98.88 28.39C98.55 28.47 98.26 28.52 98 28.52C97.06 28.52 96.59 27.87 96.59 26.59C96.59 25.6 96.92 24.25 97.58 22.54C97.24 23.33 96.84 24.09 96.39 24.8C95.94 25.49 95.48 26.11 95.01 26.64C94.54 27.18 94.06 27.62 93.58 27.97C93.11 28.3 92.68 28.5 92.28 28.57C91.64 28.53 91.12 28.23 90.72 27.66C90.32 27.07 90.12 26.32 90.12 25.42Q90.12 23.97 90.74 22.35C91.16 21.28 91.69 20.28 92.33 19.36C92.99 18.44 93.7 17.68 94.46 17.08C95.23 16.45 95.96 16.12 96.67 16.09Q96.93 16.17 97.24 16.4C97.47 16.56 97.68 16.74 97.87 16.95C98.08 17.15 98.25 17.37 98.39 17.6C98.53 17.8 98.61 17.99 98.62 18.14C97.93 18.25 97.21 18.58 96.46 19.16C95.74 19.73 95.07 20.42 94.46 21.24C93.87 22.03 93.39 22.89 93.01 23.81C92.63 24.73 92.43 25.59 92.43 26.38C92.43 26.71 92.56 26.92 92.8 27.01C93.3 26.9 93.88 26.48 94.54 25.73Q95.53 24.59 96.93 22.22C97.11 21.91 97.3 21.56 97.5 21.18Q97.84 20.61 98.18 19.99C98.41 19.57 98.62 19.16 98.83 18.74Q99.17 18.09 99.45 17.49ZM185.78 17.49C185.96 17.49 186.16 17.53 186.38 17.6C186.62 17.65 186.84 17.73 187.03 17.83C187.22 17.92 187.38 18.01 187.5 18.12C187.64 18.22 187.71 18.31 187.71 18.4C187.36 19.13 187.04 19.87 186.75 20.61C186.45 21.34 186.2 22.04 185.99 22.72C185.78 23.39 185.62 24.03 185.5 24.62C185.39 25.2 185.34 25.72 185.34 26.15C185.34 26.63 185.39 27.04 185.5 27.37C185.6 27.68 185.77 27.91 186.02 28.05C185.81 28.19 185.54 28.3 185.21 28.39C184.88 28.47 184.59 28.52 184.33 28.52C183.39 28.52 182.92 27.87 182.92 26.59Q182.92 25.11 183.91 22.54C183.56 23.33 183.17 24.09 182.72 24.8C182.26 25.49 181.81 26.11 181.34 26.64C180.87 27.18 180.39 27.62 179.91 27.97C179.44 28.3 179.01 28.5 178.61 28.57C177.97 28.53 177.45 28.23 177.05 27.66C176.65 27.07 176.45 26.32 176.45 25.42C176.45 24.45 176.66 23.43 177.07 22.35C177.49 21.28 178.02 20.28 178.66 19.36C179.32 18.44 180.03 17.68 180.79 17.08C181.55 16.45 182.29 16.12 183 16.09C183.17 16.14 183.37 16.24 183.57 16.4C183.8 16.56 184.01 16.74 184.2 16.95C184.41 17.15 184.58 17.37 184.72 17.6C184.86 17.8 184.93 17.99 184.95 18.14C184.26 18.25 183.54 18.58 182.79 19.16C182.07 19.73 181.4 20.42 180.79 21.24C180.2 22.03 179.72 22.89 179.34 23.81C178.95 24.73 178.76 25.59 178.76 26.38C178.76 26.71 178.88 26.92 179.13 27.01C179.63 26.9 180.21 26.48 180.87 25.73Q181.86 24.59 183.26 22.22C183.43 21.91 183.63 21.56 183.83 21.18C184.06 20.8 184.28 20.4 184.51 19.99C184.73 19.57 184.95 19.16 185.16 18.74C185.38 18.31 185.59 17.89 185.78 17.49ZM69.36 20.72C69.07 21.11 68.79 21.55 68.53 22.02C68.27 22.48 68.04 22.96 67.85 23.45C67.66 23.91 67.52 24.37 67.41 24.82C67.31 25.26 67.26 25.65 67.26 25.99C67.26 26.41 67.32 26.81 67.46 27.19C67.6 27.57 67.76 27.79 67.93 27.84C68.71 27.67 69.42 27.35 70.06 26.88C70.72 26.39 71.29 25.79 71.75 25.08C72.24 24.37 72.61 23.57 72.87 22.67C73.15 21.76 73.29 20.8 73.29 19.78C73.29 19.33 73.26 18.97 73.21 18.71C73.16 18.45 73.07 18.23 72.95 18.04C72.19 18.26 71.5 18.63 70.9 19.13C70.31 19.63 69.79 20.16 69.36 20.72ZM132.36 20.72C132.06 21.11 131.78 21.55 131.52 22.02Q131.13 22.72 130.85 23.45C130.66 23.91 130.51 24.37 130.41 24.82C130.3 25.26 130.25 25.65 130.25 25.99C130.25 26.41 130.32 26.81 130.46 27.19C130.6 27.57 130.75 27.79 130.92 27.84C131.71 27.67 132.42 27.35 133.06 26.88C133.72 26.39 134.28 25.79 134.75 25.08C135.23 24.37 135.61 23.57 135.87 22.67C136.14 21.76 136.28 20.8 136.28 19.78C136.28 19.33 136.25 18.97 136.2 18.71C136.15 18.45 136.07 18.23 135.94 18.04C135.18 18.26 134.5 18.63 133.89 19.13C133.3 19.63 132.79 20.16 132.36 20.72ZM42.9 18.09C42.43 18.16 41.95 18.35 41.45 18.66C40.94 18.97 40.47 19.39 40.02 19.91C39.58 20.43 39.18 21.04 38.82 21.73C38.46 22.42 38.17 23.17 37.96 23.97Q40.04 22.93 41.42 21.42Q42.52 20.19 42.81 18.79Q42.88 18.44 42.9 18.09ZM56.37 29.5C56.78 29.33 57.17 29.08 57.54 28.75C57.92 28.42 58.25 28.05 58.53 27.63C58.8 27.22 59.02 26.77 59.18 26.31C59.35 25.84 59.44 25.38 59.44 24.93C59.09 24.98 58.71 25.14 58.29 25.42Q57.67 25.81 57.12 26.38C56.76 26.75 56.46 27.13 56.21 27.53C55.97 27.93 55.85 28.27 55.85 28.57C55.85 28.95 56.02 29.26 56.37 29.5Z" fill="#FFFFFF" fill-opacity="1.000000" fill-rule="evenodd"/>
	<rect id="Frame" rx="-0.500000" width="14.000000" height="14.000000" transform="translate(355.494995 0.500000)" fill="#FFFFFF" fill-opacity="0"/>
</svg>
